<svg width="24" height="24" viewBox="0 0 24 24" fill="none" xmlns="http://www.w3.org/2000/svg">
<path d="M12 9.75V13.5" fill="none" stroke="#E33046" stroke-width="2" stroke-linecap="round" stroke-linejoin="round"/>
<path d="M10.7088 3.75024L2.45878 18.0002C2.32735 18.2279 2.25805 18.4861 2.25781 18.7489C2.25758 19.0118 2.32643 19.2701 2.45745 19.498C2.58848 19.7258 2.77709 19.9153 3.00438 20.0473C3.23168 20.1793 3.48967 20.2493 3.75253 20.2502H20.2525C20.5154 20.2493 20.7734 20.1793 21.0007 20.0473C21.228 19.9153 21.4166 19.7258 21.5476 19.498C21.6786 19.2701 21.7475 19.0118 21.7472 18.7489C21.747 18.4861 21.6777 18.2279 21.5463 18.0002L13.2963 3.75024C13.1658 3.5223 12.9775 3.33287 12.7503 3.20113C12.5231 3.06938 12.2652 3 12.0025 3C11.7399 3 11.4819 3.06938 11.2548 3.20113C11.0276 3.33287 10.8392 3.5223 10.7088 3.75024Z" fill="none" stroke="#E33046" stroke-width="2" stroke-linecap="round" stroke-linejoin="round"/>
<path d="M12 18C12.6213 18 13.125 17.4963 13.125 16.875C13.125 16.2537 12.6213 15.75 12 15.75C11.3787 15.75 10.875 16.2537 10.875 16.875C10.875 17.4963 11.3787 18 12 18Z" fill="#E33046"/>
</svg>
