<svg width="153" height="50" viewBox="0 0 153 50" fill="none" xmlns="http://www.w3.org/2000/svg">
	<path d="M58.8813 3.60834H61.5911L64.4531 10.5909H64.5749L67.437 3.60834H70.1468V14.001H68.0154V7.23663H67.9292L65.2397 13.9502H63.7884L61.0989 7.21125H61.0126V14.001H58.8813V3.60834ZM74.1391 14.1481C73.6418 14.1481 73.1987 14.0619 72.8096 13.8893C72.4206 13.7134 72.1127 13.4546 71.886 13.1129C71.6628 12.7679 71.5511 12.3382 71.5511 11.824C71.5511 11.391 71.6306 11.0273 71.7896 10.733C71.9486 10.4387 72.1651 10.2018 72.4392 10.0225C72.7132 9.84324 73.0244 9.70792 73.3729 9.61658C73.7247 9.52524 74.0935 9.46096 74.4791 9.42375C74.9325 9.37639 75.2978 9.33241 75.5752 9.29181C75.8526 9.24783 76.0539 9.18356 76.1791 9.09898C76.3043 9.0144 76.3669 8.88923 76.3669 8.72346V8.69302C76.3669 8.37163 76.2654 8.12298 76.0624 7.94706C75.8628 7.77114 75.5786 7.68319 75.2099 7.68319C74.8208 7.68319 74.5113 7.76945 74.2812 7.94199C74.0512 8.11114 73.8989 8.32427 73.8245 8.58138L71.8252 8.41899C71.9266 7.94537 72.1262 7.53602 72.4239 7.19096C72.7217 6.84251 73.1056 6.57525 73.5759 6.38918C74.0495 6.19973 74.5975 6.10501 75.22 6.10501C75.653 6.10501 76.0675 6.15575 76.4633 6.25724C76.8625 6.35873 77.216 6.51604 77.5239 6.72917C77.8351 6.9423 78.0804 7.21633 78.2597 7.55125C78.439 7.88278 78.5286 8.28029 78.5286 8.74376V14.001H76.4785V12.9201H76.4176C76.2924 13.1637 76.125 13.3785 75.9152 13.5646C75.7055 13.7473 75.4534 13.891 75.1591 13.9959C74.8648 14.0974 74.5248 14.1481 74.1391 14.1481ZM74.7582 12.6562C75.0762 12.6562 75.357 12.5936 75.6006 12.4685C75.8442 12.3399 76.0353 12.1674 76.174 11.9509C76.3127 11.7344 76.3821 11.4891 76.3821 11.2151V10.3879C76.3144 10.4319 76.2214 10.4725 76.103 10.5097C75.988 10.5435 75.8577 10.5757 75.7122 10.6061C75.5668 10.6332 75.4213 10.6586 75.2758 10.6822C75.1304 10.7025 74.9984 10.7211 74.88 10.7381C74.6263 10.7753 74.4047 10.8345 74.2153 10.9157C74.0258 10.9969 73.8786 11.1068 73.7738 11.2455C73.6689 11.3808 73.6165 11.55 73.6165 11.753C73.6165 12.0473 73.723 12.2723 73.9362 12.4279C74.1527 12.5801 74.4267 12.6562 74.7582 12.6562ZM84.3516 6.2065V7.83035H79.6577V6.2065H84.3516ZM80.7233 4.33907H82.8851V11.6058C82.8851 11.8054 82.9155 11.961 82.9764 12.0727C83.0373 12.1809 83.1219 12.257 83.2302 12.301C83.3418 12.345 83.4704 12.367 83.6158 12.367C83.7173 12.367 83.8188 12.3585 83.9203 12.3416C84.0218 12.3213 84.0996 12.3061 84.1537 12.2959L84.4937 13.9046C84.3855 13.9384 84.2332 13.9773 84.037 14.0213C83.8408 14.0686 83.6023 14.0974 83.3215 14.1075C82.8005 14.1278 82.3438 14.0585 81.9514 13.8995C81.5623 13.7405 81.2596 13.4935 81.043 13.1586C80.8265 12.8237 80.72 12.4008 80.7233 11.89V4.33907ZM89.2283 14.1532C88.4265 14.1532 87.7363 13.9908 87.1578 13.6661C86.5827 13.3379 86.1396 12.8744 85.8283 12.2756C85.5171 11.6735 85.3615 10.9613 85.3615 10.1393C85.3615 9.33748 85.5171 8.63381 85.8283 8.02825C86.1396 7.42269 86.5777 6.95076 87.1426 6.61246C87.711 6.27416 88.3774 6.10501 89.142 6.10501C89.6562 6.10501 90.1349 6.18789 90.5781 6.35366C91.0246 6.51604 91.4137 6.76131 91.7452 7.08947C92.0801 7.41762 92.3406 7.83035 92.5267 8.32765C92.7128 8.82157 92.8058 9.40007 92.8058 10.0631V10.6569H86.2241V9.31718H90.7709C90.7709 9.00595 90.7033 8.73023 90.5679 8.49004C90.4326 8.24984 90.2449 8.06208 90.0047 7.92676C89.7678 7.78806 89.4921 7.71871 89.1775 7.71871C88.8494 7.71871 88.5584 7.79483 88.3047 7.94706C88.0543 8.09591 87.8581 8.2972 87.716 8.55093C87.574 8.80127 87.5012 9.08037 87.4978 9.38823V10.6619C87.4978 11.0476 87.5689 11.3808 87.711 11.6616C87.8564 11.9424 88.0611 12.1589 88.325 12.3112C88.5889 12.4634 88.9018 12.5395 89.2638 12.5395C89.504 12.5395 89.7239 12.5057 89.9235 12.438C90.1231 12.3704 90.2939 12.2689 90.436 12.1335C90.5781 11.9982 90.6863 11.8325 90.7608 11.6362L92.7601 11.7682C92.6586 12.2486 92.4506 12.6681 92.136 13.0267C91.8247 13.3819 91.4221 13.6593 90.9282 13.8589C90.4377 14.0551 89.871 14.1532 89.2283 14.1532ZM94.2165 14.001V6.2065H96.3123V7.56647H96.3935C96.5356 7.0827 96.7741 6.71733 97.109 6.47037C97.4439 6.22003 97.8296 6.09486 98.266 6.09486C98.3742 6.09486 98.491 6.10162 98.6161 6.11516C98.7413 6.12869 98.8513 6.14729 98.946 6.17098V8.08915C98.8445 8.0587 98.7041 8.03164 98.5248 8.00796C98.3455 7.98427 98.1814 7.97243 98.0326 7.97243C97.7146 7.97243 97.4304 8.04179 97.18 8.18049C96.9331 8.31581 96.7369 8.50526 96.5914 8.74884C96.4493 8.99241 96.3783 9.27321 96.3783 9.59121V14.001H94.2165ZM100.064 14.001V6.2065H102.225V14.001H100.064ZM101.15 5.20174C100.828 5.20174 100.552 5.09518 100.322 4.88204C100.096 4.66553 99.9825 4.40673 99.9825 4.10564C99.9825 3.80794 100.096 3.55252 100.322 3.33939C100.552 3.12287 100.828 3.01462 101.15 3.01462C101.471 3.01462 101.745 3.12287 101.972 3.33939C102.202 3.55252 102.317 3.80794 102.317 4.10564C102.317 4.40673 102.202 4.66553 101.972 4.88204C101.745 5.09518 101.471 5.20174 101.15 5.20174ZM106.18 14.1481C105.682 14.1481 105.239 14.0619 104.85 13.8893C104.461 13.7134 104.153 13.4546 103.927 13.1129C103.703 12.7679 103.592 12.3382 103.592 11.824C103.592 11.391 103.671 11.0273 103.83 10.733C103.989 10.4387 104.206 10.2018 104.48 10.0225C104.754 9.84324 105.065 9.70792 105.413 9.61658C105.765 9.52524 106.134 9.46096 106.52 9.42375C106.973 9.37639 107.338 9.33241 107.616 9.29181C107.893 9.24783 108.095 9.18356 108.22 9.09898C108.345 9.0144 108.407 8.88923 108.407 8.72346V8.69302C108.407 8.37163 108.306 8.12298 108.103 7.94706C107.903 7.77114 107.619 7.68319 107.25 7.68319C106.861 7.68319 106.552 7.76945 106.322 7.94199C106.092 8.11114 105.94 8.32427 105.865 8.58138L103.866 8.41899C103.967 7.94537 104.167 7.53602 104.465 7.19096C104.762 6.84251 105.146 6.57525 105.616 6.38918C106.09 6.19973 106.638 6.10501 107.261 6.10501C107.694 6.10501 108.108 6.15575 108.504 6.25724C108.903 6.35873 109.257 6.51604 109.564 6.72917C109.876 6.9423 110.121 7.21633 110.3 7.55125C110.48 7.88278 110.569 8.28029 110.569 8.74376V14.001H108.519V12.9201H108.458C108.333 13.1637 108.166 13.3785 107.956 13.5646C107.746 13.7473 107.494 13.891 107.2 13.9959C106.905 14.0974 106.565 14.1481 106.18 14.1481ZM106.799 12.6562C107.117 12.6562 107.398 12.5936 107.641 12.4685C107.885 12.3399 108.076 12.1674 108.215 11.9509C108.353 11.7344 108.423 11.4891 108.423 11.2151V10.3879C108.355 10.4319 108.262 10.4725 108.144 10.5097C108.029 10.5435 107.898 10.5757 107.753 10.6061C107.607 10.6332 107.462 10.6586 107.316 10.6822C107.171 10.7025 107.039 10.7211 106.921 10.7381C106.667 10.7753 106.445 10.8345 106.256 10.9157C106.066 10.9969 105.919 11.1068 105.814 11.2455C105.709 11.3808 105.657 11.55 105.657 11.753C105.657 12.0473 105.764 12.2723 105.977 12.4279C106.193 12.5801 106.467 12.6562 106.799 12.6562ZM114.408 3.60834V14.001H112.246V3.60834H114.408ZM122.625 8.42914L120.646 8.55093C120.612 8.38178 120.539 8.22954 120.428 8.09422C120.316 7.95552 120.169 7.84557 119.986 7.76438C119.807 7.6798 119.592 7.63752 119.342 7.63752C119.007 7.63752 118.724 7.70856 118.494 7.85065C118.264 7.98935 118.149 8.17542 118.149 8.40884C118.149 8.59491 118.224 8.75222 118.373 8.88078C118.521 9.00933 118.777 9.11251 119.139 9.19032L120.55 9.4745C121.307 9.63011 121.872 9.88046 122.244 10.2255C122.617 10.5706 122.803 11.0239 122.803 11.5855C122.803 12.0963 122.652 12.5446 122.351 12.9303C122.053 13.3159 121.644 13.617 121.123 13.8335C120.605 14.0466 120.008 14.1532 119.332 14.1532C118.3 14.1532 117.478 13.9384 116.865 13.5087C116.256 13.0757 115.9 12.4871 115.795 11.7428L117.921 11.6312C117.985 11.9458 118.141 12.186 118.388 12.3518C118.635 12.5141 118.951 12.5953 119.337 12.5953C119.716 12.5953 120.02 12.5226 120.25 12.3771C120.484 12.2283 120.602 12.0371 120.605 11.8037C120.602 11.6075 120.519 11.4468 120.357 11.3216C120.194 11.1931 119.944 11.095 119.606 11.0273L118.256 10.7584C117.495 10.6061 116.928 10.3422 116.556 9.96672C116.187 9.59121 116.003 9.11251 116.003 8.53063C116.003 8.02995 116.138 7.59861 116.409 7.23663C116.683 6.87464 117.067 6.59555 117.561 6.39933C118.058 6.20311 118.64 6.10501 119.306 6.10501C120.291 6.10501 121.065 6.31306 121.63 6.72917C122.199 7.14529 122.53 7.71194 122.625 8.42914Z" fill="#373535"/>
	<path d="M61.0786 19.6005V29.9932H58.8813V19.6005H61.0786ZM65.0075 25.487V29.9932H62.8458V22.1987H64.906V23.5739H64.9974C65.1699 23.1206 65.4592 22.762 65.8651 22.4981C66.2711 22.2308 66.7633 22.0972 67.3418 22.0972C67.8831 22.0972 68.355 22.2156 68.7576 22.4524C69.1602 22.6892 69.4731 23.0275 69.6964 23.4673C69.9197 23.9037 70.0313 24.4247 70.0313 25.0303V29.9932H67.8696V25.4159C67.8729 24.9389 67.7512 24.5668 67.5042 24.2995C67.2572 24.0289 66.9172 23.8936 66.4842 23.8936C66.1933 23.8936 65.9362 23.9562 65.7129 24.0813C65.493 24.2065 65.3205 24.3892 65.1953 24.6294C65.0735 24.8662 65.0109 25.1521 65.0075 25.487ZM73.8968 25.487V29.9932H71.7351V22.1987H73.7953V23.5739H73.8867C74.0592 23.1206 74.3485 22.762 74.7544 22.4981C75.1604 22.2308 75.6526 22.0972 76.2311 22.0972C76.7724 22.0972 77.2443 22.2156 77.6469 22.4524C78.0495 22.6892 78.3624 23.0275 78.5857 23.4673C78.809 23.9037 78.9206 24.4247 78.9206 25.0303V29.9932H76.7589V25.4159C76.7622 24.9389 76.6405 24.5668 76.3935 24.2995C76.1465 24.0289 75.8065 23.8936 75.3735 23.8936C75.0826 23.8936 74.8255 23.9562 74.6022 24.0813C74.3823 24.2065 74.2098 24.3892 74.0846 24.6294C73.9628 24.8662 73.9002 25.1521 73.8968 25.487ZM84.1461 30.1454C83.3579 30.1454 82.6762 29.9779 82.1011 29.643C81.5293 29.3047 81.0879 28.8345 80.7766 28.2323C80.4654 27.6267 80.3098 26.9248 80.3098 26.1264C80.3098 25.3212 80.4654 24.6175 80.7766 24.0154C81.0879 23.4098 81.5293 22.9396 82.1011 22.6046C82.6762 22.2663 83.3579 22.0972 84.1461 22.0972C84.9344 22.0972 85.6143 22.2663 86.1861 22.6046C86.7612 22.9396 87.2044 23.4098 87.5156 24.0154C87.8268 24.6175 87.9825 25.3212 87.9825 26.1264C87.9825 26.9248 87.8268 27.6267 87.5156 28.2323C87.2044 28.8345 86.7612 29.3047 86.1861 29.643C85.6143 29.9779 84.9344 30.1454 84.1461 30.1454ZM84.1563 28.4708C84.5149 28.4708 84.8143 28.3693 85.0545 28.1663C85.2946 27.96 85.4756 27.6792 85.5974 27.324C85.7226 26.9687 85.7852 26.5645 85.7852 26.1111C85.7852 25.6578 85.7226 25.2536 85.5974 24.8983C85.4756 24.5431 85.2946 24.2623 85.0545 24.056C84.8143 23.8496 84.5149 23.7464 84.1563 23.7464C83.7943 23.7464 83.4898 23.8496 83.2428 24.056C82.9993 24.2623 82.8149 24.5431 82.6897 24.8983C82.5679 25.2536 82.507 25.6578 82.507 26.1111C82.507 26.5645 82.5679 26.9687 82.6897 27.324C82.8149 27.6792 82.9993 27.96 83.2428 28.1663C83.4898 28.3693 83.7943 28.4708 84.1563 28.4708ZM96.4036 22.1987L93.6786 29.9932H91.2428L88.5178 22.1987H90.8014L92.4201 27.7756H92.5013L94.115 22.1987H96.4036ZM99.5232 30.1403C99.0259 30.1403 98.5827 30.0541 98.1937 29.8815C97.8046 29.7056 97.4968 29.4468 97.2701 29.1051C97.0468 28.7601 96.9352 28.3304 96.9352 27.8162C96.9352 27.3832 97.0147 27.0195 97.1737 26.7252C97.3327 26.4308 97.5492 26.194 97.8232 26.0147C98.0973 25.8354 98.4085 25.7001 98.757 25.6088C99.1088 25.5174 99.4775 25.4532 99.8632 25.4159C100.317 25.3686 100.682 25.3246 100.959 25.284C101.237 25.24 101.438 25.1757 101.563 25.0912C101.688 25.0066 101.751 24.8814 101.751 24.7157V24.6852C101.751 24.3638 101.649 24.1152 101.446 23.9392C101.247 23.7633 100.963 23.6754 100.594 23.6754C100.205 23.6754 99.8953 23.7616 99.6653 23.9342C99.4352 24.1033 99.283 24.3165 99.2086 24.5736L97.2092 24.4112C97.3107 23.9376 97.5103 23.5282 97.808 23.1831C98.1057 22.8347 98.4897 22.5674 98.9599 22.3814C99.4336 22.1919 99.9816 22.0972 100.604 22.0972C101.037 22.0972 101.452 22.1479 101.847 22.2494C102.247 22.3509 102.6 22.5082 102.908 22.7214C103.219 22.9345 103.464 23.2085 103.644 23.5434C103.823 23.875 103.913 24.2725 103.913 24.736V29.9932H101.863V28.9123H101.802C101.676 29.1559 101.509 29.3707 101.299 29.5568C101.09 29.7394 100.838 29.8832 100.543 29.9881C100.249 30.0896 99.9089 30.1403 99.5232 30.1403ZM100.142 28.6484C100.46 28.6484 100.741 28.5858 100.985 28.4607C101.228 28.3321 101.419 28.1596 101.558 27.9431C101.697 27.7265 101.766 27.4813 101.766 27.2072V26.3801C101.698 26.4241 101.605 26.4647 101.487 26.5019C101.372 26.5357 101.242 26.5679 101.096 26.5983C100.951 26.6254 100.805 26.6507 100.66 26.6744C100.514 26.6947 100.382 26.7133 100.264 26.7302C100.01 26.7675 99.7888 26.8267 99.5993 26.9078C99.4099 26.989 99.2627 27.099 99.1578 27.2377C99.053 27.373 99.0005 27.5422 99.0005 27.7451C99.0005 28.0395 99.1071 28.2644 99.3202 28.4201C99.5367 28.5723 99.8108 28.6484 100.142 28.6484ZM109.736 22.1987V23.8225H105.042V22.1987H109.736ZM106.107 20.3313H108.269V27.598C108.269 27.7976 108.3 27.9532 108.361 28.0648C108.421 28.1731 108.506 28.2492 108.614 28.2932C108.726 28.3372 108.854 28.3592 109 28.3592C109.101 28.3592 109.203 28.3507 109.304 28.3338C109.406 28.3135 109.484 28.2983 109.538 28.2881L109.878 29.8967C109.77 29.9306 109.617 29.9695 109.421 30.0135C109.225 30.0608 108.986 30.0896 108.706 30.0997C108.185 30.12 107.728 30.0507 107.335 29.8917C106.946 29.7327 106.644 29.4857 106.427 29.1508C106.211 28.8159 106.104 28.393 106.107 27.8822V20.3313ZM111.144 29.9932V22.1987H113.306V29.9932H111.144ZM112.23 21.1939C111.908 21.1939 111.633 21.0874 111.403 20.8742C111.176 20.6577 111.063 20.3989 111.063 20.0978C111.063 19.8001 111.176 19.5447 111.403 19.3316C111.633 19.1151 111.908 19.0068 112.23 19.0068C112.551 19.0068 112.825 19.1151 113.052 19.3316C113.282 19.5447 113.397 19.8001 113.397 20.0978C113.397 20.3989 113.282 20.6577 113.052 20.8742C112.825 21.0874 112.551 21.1939 112.23 21.1939ZM118.559 30.1454C117.771 30.1454 117.089 29.9779 116.514 29.643C115.942 29.3047 115.501 28.8345 115.19 28.2323C114.878 27.6267 114.723 26.9248 114.723 26.1264C114.723 25.3212 114.878 24.6175 115.19 24.0154C115.501 23.4098 115.942 22.9396 116.514 22.6046C117.089 22.2663 117.771 22.0972 118.559 22.0972C119.347 22.0972 120.027 22.2663 120.599 22.6046C121.174 22.9396 121.617 23.4098 121.929 24.0154C122.24 24.6175 122.395 25.3212 122.395 26.1264C122.395 26.9248 122.24 27.6267 121.929 28.2323C121.617 28.8345 121.174 29.3047 120.599 29.643C120.027 29.9779 119.347 30.1454 118.559 30.1454ZM118.569 28.4708C118.928 28.4708 119.227 28.3693 119.467 28.1663C119.708 27.96 119.889 27.6792 120.01 27.324C120.136 26.9687 120.198 26.5645 120.198 26.1111C120.198 25.6578 120.136 25.2536 120.01 24.8983C119.889 24.5431 119.708 24.2623 119.467 24.056C119.227 23.8496 118.928 23.7464 118.569 23.7464C118.207 23.7464 117.903 23.8496 117.656 24.056C117.412 24.2623 117.228 24.5431 117.103 24.8983C116.981 25.2536 116.92 25.6578 116.92 26.1111C116.92 26.5645 116.981 26.9687 117.103 27.324C117.228 27.6792 117.412 27.96 117.656 28.1663C117.903 28.3693 118.207 28.4708 118.569 28.4708ZM125.963 25.487V29.9932H123.801V22.1987H125.861V23.5739H125.953C126.125 23.1206 126.414 22.762 126.82 22.4981C127.226 22.2308 127.719 22.0972 128.297 22.0972C128.838 22.0972 129.31 22.2156 129.713 22.4524C130.115 22.6892 130.428 23.0275 130.652 23.4673C130.875 23.9037 130.987 24.4247 130.987 25.0303V29.9932H128.825V25.4159C128.828 24.9389 128.706 24.5668 128.459 24.2995C128.212 24.0289 127.872 23.8936 127.439 23.8936C127.149 23.8936 126.891 23.9562 126.668 24.0813C126.448 24.2065 126.276 24.3892 126.151 24.6294C126.029 24.8662 125.966 25.1521 125.963 25.487Z" fill="#373535"/>
	<path d="M58.4855 37.4043V35.5927H67.0208V37.4043H63.8391V45.9854H61.6672V37.4043H58.4855ZM70.8077 46.1376C70.0059 46.1376 69.3158 45.9752 68.7373 45.6504C68.1622 45.3223 67.719 44.8588 67.4078 44.26C67.0965 43.6578 66.9409 42.9457 66.9409 42.1236C66.9409 41.3219 67.0965 40.6182 67.4078 40.0126C67.719 39.4071 68.1571 38.9351 68.7221 38.5968C69.2904 38.2585 69.9569 38.0894 70.7214 38.0894C71.2357 38.0894 71.7144 38.1723 72.1575 38.338C72.6041 38.5004 72.9931 38.7457 73.3247 39.0738C73.6596 39.402 73.9201 39.8147 74.1062 40.312C74.2922 40.8059 74.3853 41.3844 74.3853 42.0475V42.6412H67.8036V41.3016H72.3504C72.3504 40.9903 72.2827 40.7146 72.1474 40.4744C72.0121 40.2342 71.8243 40.0465 71.5841 39.9111C71.3473 39.7724 71.0716 39.7031 70.757 39.7031C70.4288 39.7031 70.1379 39.7792 69.8841 39.9314C69.6338 40.0803 69.4376 40.2816 69.2955 40.5353C69.1534 40.7856 69.0807 41.0647 69.0773 41.3726V42.6463C69.0773 43.032 69.1483 43.3652 69.2904 43.646C69.4359 43.9268 69.6406 44.1433 69.9044 44.2955C70.1683 44.4478 70.4812 44.5239 70.8432 44.5239C71.0834 44.5239 71.3033 44.4901 71.5029 44.4224C71.7025 44.3547 71.8734 44.2532 72.0154 44.1179C72.1575 43.9826 72.2658 43.8168 72.3402 43.6206L74.3396 43.7526C74.2381 44.2329 74.03 44.6524 73.7154 45.011C73.4042 45.3663 73.0016 45.6437 72.5077 45.8433C72.0171 46.0395 71.4505 46.1376 70.8077 46.1376ZM79.3177 46.1376C78.5193 46.1376 77.8326 45.9684 77.2574 45.6301C76.6857 45.2884 76.2459 44.8148 75.9381 44.2093C75.6336 43.6037 75.4814 42.9068 75.4814 42.1186C75.4814 41.3202 75.6353 40.6199 75.9431 40.0177C76.2544 39.4121 76.6959 38.9402 77.2676 38.6019C77.8393 38.2602 78.5193 38.0894 79.3075 38.0894C79.9875 38.0894 80.5829 38.2129 81.0938 38.4598C81.6046 38.7068 82.0089 39.0535 82.3066 39.5001C82.6043 39.9467 82.7684 40.471 82.7988 41.0732H80.7589C80.7014 40.6842 80.5491 40.3712 80.3022 40.1344C80.0586 39.8942 79.7389 39.7741 79.3431 39.7741C79.0081 39.7741 78.7155 39.8655 78.4652 40.0482C78.2182 40.2275 78.0254 40.4896 77.8867 40.8347C77.748 41.1798 77.6786 41.5976 77.6786 42.0881C77.6786 42.5854 77.7463 43.0083 77.8816 43.3567C78.0203 43.7052 78.2148 43.9708 78.4652 44.1534C78.7155 44.3361 79.0081 44.4275 79.3431 44.4275C79.59 44.4275 79.8116 44.3767 80.0078 44.2752C80.2074 44.1737 80.3715 44.0266 80.5001 43.8338C80.632 43.6375 80.7183 43.4024 80.7589 43.1284H82.7988C82.765 43.7238 82.6026 44.2482 82.3117 44.7015C82.0241 45.1514 81.6266 45.5033 81.1192 45.757C80.6117 46.0107 80.0112 46.1376 79.3177 46.1376ZM86.3447 41.4792V45.9854H84.1829V35.5927H86.2838V39.5661H86.3751C86.551 39.106 86.8352 38.7457 87.2276 38.4852C87.6201 38.2213 88.1123 38.0894 88.7043 38.0894C89.2456 38.0894 89.7175 38.2078 90.1201 38.4446C90.5261 38.678 90.8407 39.0146 91.064 39.4544C91.2906 39.8908 91.4023 40.4135 91.3989 41.0225V45.9854H89.2371V41.4081C89.2405 40.9277 89.1187 40.5539 88.8718 40.2867C88.6282 40.0194 88.2865 39.8858 87.8467 39.8858C87.5524 39.8858 87.2919 39.9484 87.0652 40.0735C86.842 40.1987 86.666 40.3814 86.5375 40.6216C86.4123 40.8584 86.348 41.1442 86.3447 41.4792ZM95.2619 41.4792V45.9854H93.1001V38.1909H95.1604V39.5661H95.2517C95.4243 39.1127 95.7135 38.7541 96.1195 38.4903C96.5254 38.223 97.0177 38.0894 97.5962 38.0894C98.1374 38.0894 98.6094 38.2078 99.0119 38.4446C99.4145 38.6814 99.7275 39.0197 99.9507 39.4595C100.174 39.8959 100.286 40.4169 100.286 41.0225V45.9854H98.1239V41.4081C98.1273 40.9311 98.0055 40.559 97.7585 40.2917C97.5116 40.0211 97.1716 39.8858 96.7386 39.8858C96.4476 39.8858 96.1905 39.9484 95.9672 40.0735C95.7473 40.1987 95.5748 40.3814 95.4496 40.6216C95.3278 40.8584 95.2653 41.1442 95.2619 41.4792ZM105.511 46.1376C104.723 46.1376 104.041 45.9701 103.466 45.6352C102.894 45.2969 102.453 44.8267 102.142 44.2245C101.83 43.6189 101.675 42.917 101.675 42.1186C101.675 41.3134 101.83 40.6097 102.142 40.0076C102.453 39.402 102.894 38.9318 103.466 38.5968C104.041 38.2585 104.723 38.0894 105.511 38.0894C106.299 38.0894 106.979 38.2585 107.551 38.5968C108.126 38.9318 108.569 39.402 108.881 40.0076C109.192 40.6097 109.348 41.3134 109.348 42.1186C109.348 42.917 109.192 43.6189 108.881 44.2245C108.569 44.8267 108.126 45.2969 107.551 45.6352C106.979 45.9701 106.299 46.1376 105.511 46.1376ZM105.521 44.463C105.88 44.463 106.179 44.3615 106.419 44.1585C106.66 43.9522 106.841 43.6714 106.962 43.3161C107.088 42.9609 107.15 42.5567 107.15 42.1033C107.15 41.65 107.088 41.2457 106.962 40.8905C106.841 40.5353 106.66 40.2545 106.419 40.0482C106.179 39.8418 105.88 39.7386 105.521 39.7386C105.159 39.7386 104.855 39.8418 104.608 40.0482C104.364 40.2545 104.18 40.5353 104.055 40.8905C103.933 41.2457 103.872 41.65 103.872 42.1033C103.872 42.5567 103.933 42.9609 104.055 43.3161C104.18 43.6714 104.364 43.9522 104.608 44.1585C104.855 44.3615 105.159 44.463 105.521 44.463ZM112.915 35.5927V45.9854H110.753V35.5927H112.915ZM118.168 46.1376C117.38 46.1376 116.698 45.9701 116.123 45.6352C115.552 45.2969 115.11 44.8267 114.799 44.2245C114.488 43.6189 114.332 42.917 114.332 42.1186C114.332 41.3134 114.488 40.6097 114.799 40.0076C115.11 39.402 115.552 38.9318 116.123 38.5968C116.698 38.2585 117.38 38.0894 118.168 38.0894C118.957 38.0894 119.637 38.2585 120.208 38.5968C120.783 38.9318 121.227 39.402 121.538 40.0076C121.849 40.6097 122.005 41.3134 122.005 42.1186C122.005 42.917 121.849 43.6189 121.538 44.2245C121.227 44.8267 120.783 45.2969 120.208 45.6352C119.637 45.9701 118.957 46.1376 118.168 46.1376ZM118.178 44.463C118.537 44.463 118.836 44.3615 119.077 44.1585C119.317 43.9522 119.498 43.6714 119.62 43.3161C119.745 42.9609 119.807 42.5567 119.807 42.1033C119.807 41.65 119.745 41.2457 119.62 40.8905C119.498 40.5353 119.317 40.2545 119.077 40.0482C118.836 39.8418 118.537 39.7386 118.178 39.7386C117.816 39.7386 117.512 39.8418 117.265 40.0482C117.021 40.2545 116.837 40.5353 116.712 40.8905C116.59 41.2457 116.529 41.65 116.529 42.1033C116.529 42.5567 116.59 42.9609 116.712 43.3161C116.837 43.6714 117.021 43.9522 117.265 44.1585C117.512 44.3615 117.816 44.463 118.178 44.463ZM126.922 49.0707C126.222 49.0707 125.621 48.9743 125.12 48.7814C124.623 48.592 124.227 48.3332 123.933 48.005C123.639 47.6769 123.448 47.3081 123.36 46.8988L125.359 46.6298C125.42 46.7854 125.516 46.9309 125.648 47.0662C125.78 47.2015 125.954 47.3098 126.171 47.391C126.391 47.4756 126.658 47.5179 126.973 47.5179C127.443 47.5179 127.83 47.4028 128.135 47.1728C128.443 46.9461 128.596 46.5655 128.596 46.031V44.6051H128.505C128.41 44.8216 128.268 45.0263 128.079 45.2191C127.889 45.4119 127.646 45.5692 127.348 45.691C127.05 45.8128 126.695 45.8737 126.282 45.8737C125.697 45.8737 125.164 45.7384 124.684 45.4677C124.207 45.1937 123.826 44.7759 123.542 44.2143C123.261 43.6494 123.121 42.9356 123.121 42.0729C123.121 41.1899 123.265 40.4524 123.552 39.8604C123.84 39.2684 124.222 38.8252 124.699 38.5309C125.18 38.2365 125.706 38.0894 126.277 38.0894C126.714 38.0894 127.079 38.1638 127.374 38.3127C127.668 38.4581 127.905 38.6408 128.084 38.8607C128.267 39.0772 128.407 39.2904 128.505 39.5001H128.586V38.1909H130.733V46.0615C130.733 46.7245 130.57 47.2794 130.246 47.7259C129.921 48.1725 129.471 48.5074 128.896 48.7307C128.324 48.9573 127.666 49.0707 126.922 49.0707ZM126.968 44.2499C127.316 44.2499 127.61 44.1636 127.851 43.9911C128.094 43.8151 128.28 43.5648 128.409 43.24C128.541 42.9119 128.607 42.5194 128.607 42.0627C128.607 41.606 128.542 41.2102 128.414 40.8753C128.285 40.537 128.099 40.2748 127.856 40.0887C127.612 39.9027 127.316 39.8096 126.968 39.8096C126.612 39.8096 126.313 39.9061 126.069 40.0989C125.826 40.2883 125.641 40.5522 125.516 40.8905C125.391 41.2288 125.328 41.6196 125.328 42.0627C125.328 42.5127 125.391 42.9017 125.516 43.2299C125.645 43.5547 125.829 43.8067 126.069 43.986C126.313 44.1619 126.612 44.2499 126.968 44.2499ZM132.453 45.9854V38.1909H134.615V45.9854H132.453ZM133.539 37.1861C133.218 37.1861 132.942 37.0796 132.712 36.8664C132.485 36.6499 132.372 36.3911 132.372 36.09C132.372 35.7923 132.485 35.5369 132.712 35.3238C132.942 35.1072 133.218 34.999 133.539 34.999C133.86 34.999 134.134 35.1072 134.361 35.3238C134.591 35.5369 134.706 35.7923 134.706 36.09C134.706 36.3911 134.591 36.6499 134.361 36.8664C134.134 37.0796 133.86 37.1861 133.539 37.1861ZM139.899 46.1376C139.097 46.1376 138.407 45.9752 137.828 45.6504C137.253 45.3223 136.81 44.8588 136.499 44.26C136.188 43.6578 136.032 42.9457 136.032 42.1236C136.032 41.3219 136.188 40.6182 136.499 40.0126C136.81 39.4071 137.248 38.9351 137.813 38.5968C138.381 38.2585 139.048 38.0894 139.812 38.0894C140.327 38.0894 140.805 38.1723 141.249 38.338C141.695 38.5004 142.084 38.7457 142.416 39.0738C142.751 39.402 143.011 39.8147 143.197 40.312C143.383 40.8059 143.476 41.3844 143.476 42.0475V42.6412H136.895V41.3016H141.441C141.441 40.9903 141.374 40.7146 141.238 40.4744C141.103 40.2342 140.915 40.0465 140.675 39.9111C140.438 39.7724 140.163 39.7031 139.848 39.7031C139.52 39.7031 139.229 39.7792 138.975 39.9314C138.725 40.0803 138.529 40.2816 138.387 40.5353C138.244 40.7856 138.172 41.0647 138.168 41.3726V42.6463C138.168 43.032 138.239 43.3652 138.381 43.646C138.527 43.9268 138.732 44.1433 138.995 44.2955C139.259 44.4478 139.572 44.5239 139.934 44.5239C140.174 44.5239 140.394 44.4901 140.594 44.4224C140.794 44.3547 140.964 44.2532 141.106 44.1179C141.249 43.9826 141.357 43.8168 141.431 43.6206L143.431 43.7526C143.329 44.2329 143.121 44.6524 142.806 45.011C142.495 45.3663 142.093 45.6437 141.599 45.8433C141.108 46.0395 140.541 46.1376 139.899 46.1376ZM151.372 40.4135L149.393 40.5353C149.359 40.3662 149.287 40.2139 149.175 40.0786C149.063 39.9399 148.916 39.8299 148.733 39.7488C148.554 39.6642 148.339 39.6219 148.089 39.6219C147.754 39.6219 147.472 39.6929 147.242 39.835C147.012 39.9737 146.896 40.1598 146.896 40.3932C146.896 40.5793 146.971 40.7366 147.12 40.8652C147.269 40.9937 147.524 41.0969 147.886 41.1747L149.297 41.4589C150.055 41.6145 150.62 41.8648 150.992 42.2099C151.364 42.555 151.55 43.0083 151.55 43.5699C151.55 44.0807 151.399 44.529 151.098 44.9146C150.8 45.3003 150.391 45.6014 149.87 45.8179C149.353 46.031 148.755 46.1376 148.079 46.1376C147.047 46.1376 146.225 45.9228 145.613 45.4931C145.004 45.0601 144.647 44.4714 144.542 43.7272L146.668 43.6155C146.732 43.9302 146.888 44.1704 147.135 44.3361C147.382 44.4985 147.698 44.5797 148.084 44.5797C148.463 44.5797 148.767 44.507 148.997 44.3615C149.231 44.2126 149.349 44.0215 149.353 43.7881C149.349 43.5919 149.266 43.4312 149.104 43.306C148.942 43.1774 148.691 43.0793 148.353 43.0117L147.003 42.7427C146.242 42.5905 145.675 42.3266 145.303 41.9511C144.934 41.5756 144.75 41.0969 144.75 40.515C144.75 40.0143 144.885 39.583 145.156 39.221C145.43 38.859 145.814 38.5799 146.308 38.3837C146.805 38.1875 147.387 38.0894 148.053 38.0894C149.038 38.0894 149.813 38.2974 150.378 38.7135C150.946 39.1297 151.278 39.6963 151.372 40.4135Z" fill="#373535"/>
	<path d="M49.2502 9.57666H0.927734V2.03035H49.2502V9.57666Z" fill="#373535"/>
	<path d="M18.6341 12.7511H7.51217H0V20.6231V46.6533H7.51217V20.6231H18.6341V12.7511Z" fill="#373535"/>
	<path d="M31.543 12.7511H42.6649H50.1771V20.6231V46.6533H42.6649V20.6231H31.543V12.7511Z" fill="#373535"/>
	<path d="M21.333 22.7865H28.8448V46.5098H21.333V22.7865Z" fill="#373535"/>
	<path d="M28.8448 20.6235H21.333V12.7516H28.8448V20.6235Z" fill="#C1343E"/>
</svg>