<svg width="97" height="97" viewBox="0 0 97 97" fill="none" xmlns="http://www.w3.org/2000/svg">
<path d="M80.8301 20.208H70.3783L59.4375 9.26722C59.0629 8.89117 58.6175 8.59295 58.1271 8.38971C57.6367 8.18648 57.1109 8.08224 56.5801 8.08301H40.4134C39.8826 8.08224 39.3568 8.18648 38.8664 8.38971C38.376 8.59295 37.9306 8.89117 37.556 9.26722L26.6152 20.208H16.1634C11.7055 20.208 8.08008 23.8334 8.08008 28.2913V72.7497C8.08008 77.2076 11.7055 80.833 16.1634 80.833H80.8301C85.288 80.833 88.9134 77.2076 88.9134 72.7497V28.2913C88.9134 23.8334 85.288 20.208 80.8301 20.208ZM48.4967 68.708C37.5438 68.708 28.2884 59.4526 28.2884 48.4997C28.2884 37.5427 37.5438 28.2913 48.4967 28.2913C59.4497 28.2913 68.7051 37.5427 68.7051 48.4997C68.7051 59.4526 59.4497 68.708 48.4967 68.708Z" fill="#BBCBD0"/>
<path d="M52.5417 37.375C52.5417 36.8227 52.094 36.375 51.5417 36.375H45.4583C44.906 36.375 44.4583 36.8227 44.4583 37.375V43.4583C44.4583 44.0106 44.0106 44.4583 43.4583 44.4583H37.375C36.8227 44.4583 36.375 44.906 36.375 45.4583V51.5417C36.375 52.094 36.8227 52.5417 37.375 52.5417H43.4583C44.0106 52.5417 44.4583 52.9894 44.4583 53.5417V59.625C44.4583 60.1773 44.906 60.625 45.4583 60.625H51.5417C52.0939 60.625 52.5417 60.1773 52.5417 59.625V53.5417C52.5417 52.9894 52.9894 52.5417 53.5417 52.5417H59.625C60.1773 52.5417 60.625 52.094 60.625 51.5417V45.4583C60.625 44.906 60.1773 44.4583 59.625 44.4583H53.5417C52.9894 44.4583 52.5417 44.0106 52.5417 43.4583V37.375Z" fill="#BBCBD0"/>
</svg>
