<svg width="32" height="32" viewBox="0 0 32 32" fill="none" xmlns="http://www.w3.org/2000/svg">
<path d="M12 5.33366L14.5862 7.40258C15.004 7.73689 15.611 7.68296 15.9634 7.28022L20 2.66699" fill="none" stroke="#7C9DA8" stroke-width="2" stroke-linecap="round" stroke-linejoin="round"/>
<path d="M5.33203 13.333V22.7636C5.33203 23.5212 5.76004 24.2137 6.4376 24.5525L15.1043 28.8858C15.6673 29.1673 16.3301 29.1673 16.8931 28.8858L25.5598 24.5525C26.2374 24.2137 26.6654 23.5212 26.6654 22.7636V13.333" fill="none" stroke="#7C9DA8" stroke-width="2"/>
<path d="M23.9987 6.66699L26.6654 8.00033L15.9987 13.3337L5.33203 8.00033L7.9987 6.66699" fill="none" stroke="#7C9DA8" stroke-width="2" stroke-linecap="round" stroke-linejoin="round"/>
<path d="M26.6667 8L16 13.3333L18.6667 17.3333L29.3333 12L26.6667 8Z" fill="none" stroke="#7C9DA8" stroke-width="2" stroke-linecap="round" stroke-linejoin="round"/>
<path d="M5.33333 8L16 13.3333L13.3333 17.3333L2.66667 12L5.33333 8Z" fill="none" stroke="#7C9DA8" stroke-width="2" stroke-linecap="round" stroke-linejoin="round"/>
</svg>
