<svg width="24" height="25" viewBox="0 0 24 25" fill="none" xmlns="http://www.w3.org/2000/svg">
<path d="M11 2.94238H9C4 2.94238 2 4.94238 2 9.94238V15.9424C2 20.9424 4 22.9424 9 22.9424H15C20 22.9424 22 20.9424 22 15.9424V13.9424" fill="none" stroke="#7C9DA8" stroke-width="2" stroke-linecap="round" stroke-linejoin="round"/>
<path d="M16.0399 3.96264L8.15988 11.8426C7.85988 12.1426 7.55988 12.7326 7.49988 13.1626L7.06988 16.1726C6.90988 17.2626 7.67988 18.0226 8.76988 17.8726L11.7799 17.4426C12.1999 17.3826 12.7899 17.0826 13.0999 16.7826L20.9799 8.90264C22.3399 7.54264 22.9799 5.96264 20.9799 3.96264C18.9799 1.96264 17.3999 2.60264 16.0399 3.96264Z" fill="none" stroke="#7C9DA8" stroke-width="2" stroke-miterlimit="10" stroke-linecap="round" stroke-linejoin="round"/>
<path d="M14.9102 5.09277C15.5802 7.48277 17.4502 9.35277 19.8502 10.0328" fill="none" stroke="#7C9DA8" stroke-width="2" stroke-miterlimit="10" stroke-linecap="round" stroke-linejoin="round"/>
</svg>
