<svg width="20" height="18" viewBox="0 0 20 18" fill="none" xmlns="http://www.w3.org/2000/svg">
<path d="M19.25 6.15506C16.94 2.52506 13.56 0.435059 10 0.435059C8.22 0.435059 6.49 0.955059 4.91 1.92506C3.33 2.90506 1.91 4.33506 0.75 6.15506C-0.25 7.72506 -0.25 10.2751 0.75 11.8451C3.06 15.4851 6.44 17.5651 10 17.5651C11.78 17.5651 13.51 17.0451 15.09 16.0751C16.67 15.0951 18.09 13.6651 19.25 11.8451C20.25 10.2851 20.25 7.72506 19.25 6.15506ZM10 13.0451C7.76 13.0451 5.96 11.2351 5.96 9.00506C5.96 6.77506 7.76 4.96506 10 4.96506C12.24 4.96506 14.04 6.77506 14.04 9.00506C14.04 11.2351 12.24 13.0451 10 13.0451Z" fill="white"/>
</svg>