<svg width="32" height="32" viewBox="0 0 32 32" fill="none" xmlns="http://www.w3.org/2000/svg">
<path d="M18 16C18 17.1046 17.1046 18 16 18C14.8954 18 14 17.1046 14 16C14 14.8954 14.8954 14 16 14C17.1046 14 18 14.8954 18 16Z" fill="none" stroke="#7C9DA8" stroke-width="2"/>
<path d="M16 8V14M18 18L20 20" fill="none" stroke="#7C9DA8" stroke-width="2" stroke-linecap="round" stroke-linejoin="round"/>
<path d="M2.66797 16.0003C2.66797 8.63653 8.6375 2.66699 16.0013 2.66699C23.3651 2.66699 29.3346 8.63653 29.3346 16.0003C29.3346 23.3641 23.3651 29.3337 16.0013 29.3337H2.66797" fill="none" stroke="#7C9DA8" stroke-width="2" stroke-linecap="round"/>
<path d="M10.668 24H2.66797" fill="none" stroke="#7C9DA8" stroke-width="2" stroke-linecap="round" stroke-linejoin="round"/>
<path d="M8.0013 20H2.66797" fill="none" stroke="#7C9DA8" stroke-width="2" stroke-linecap="round" stroke-linejoin="round"/>
</svg>
