<svg width="32" height="32" viewBox="0 0 32 32" fill="none" xmlns="http://www.w3.org/2000/svg">
<path d="M18.2455 13.4414L19.0864 13.9825L18.2455 13.4414ZM12.3346 12.0003C12.3346 12.5526 12.7823 13.0003 13.3346 13.0003C13.8869 13.0003 14.3346 12.5526 14.3346 12.0003H12.3346ZM15.0013 18.0003C15.0013 18.5526 15.449 19.0003 16.0013 19.0003C16.5536 19.0003 17.0013 18.5526 17.0013 18.0003H15.0013ZM17.0013 21.3337C17.0013 20.7814 16.5536 20.3337 16.0013 20.3337C15.449 20.3337 15.0013 20.7814 15.0013 21.3337H17.0013ZM15.0013 22.667C15.0013 23.2193 15.449 23.667 16.0013 23.667C16.5536 23.667 17.0013 23.2193 17.0013 22.667H15.0013ZM28.3346 16.0003C28.3346 22.8118 22.8128 28.3337 16.0013 28.3337V30.3337C23.9174 30.3337 30.3346 23.9164 30.3346 16.0003H28.3346ZM16.0013 28.3337C9.18979 28.3337 3.66797 22.8118 3.66797 16.0003H1.66797C1.66797 23.9164 8.08522 30.3337 16.0013 30.3337V28.3337ZM3.66797 16.0003C3.66797 9.18881 9.18979 3.66699 16.0013 3.66699V1.66699C8.08522 1.66699 1.66797 8.08424 1.66797 16.0003H3.66797ZM16.0013 3.66699C22.8128 3.66699 28.3346 9.18881 28.3346 16.0003H30.3346C30.3346 8.08424 23.9174 1.66699 16.0013 1.66699V3.66699ZM17.668 12.0003C17.668 12.3336 17.5712 12.6412 17.4045 12.9003L19.0864 13.9825C19.4545 13.4104 19.668 12.7288 19.668 12.0003H17.668ZM14.3346 12.0003C14.3346 11.0799 15.0808 10.3337 16.0013 10.3337V8.33366C13.9763 8.33366 12.3346 9.97528 12.3346 12.0003H14.3346ZM16.0013 10.3337C16.9218 10.3337 17.668 11.0799 17.668 12.0003H19.668C19.668 9.97528 18.0263 8.33366 16.0013 8.33366V10.3337ZM15.0013 17.3337V18.0003H17.0013V17.3337H15.0013ZM17.4045 12.9003C17.2366 13.1612 17.0264 13.4312 16.7795 13.738C16.543 14.0319 16.2651 14.3688 16.0159 14.7113C15.5245 15.3867 15.0013 16.268 15.0013 17.3337H17.0013C17.0013 16.9266 17.2017 16.481 17.6331 15.888C17.8453 15.5964 18.0787 15.3138 18.3377 14.9918C18.5863 14.6829 18.8558 14.3408 19.0864 13.9825L17.4045 12.9003ZM15.0013 21.3337V22.667H17.0013V21.3337H15.0013Z" fill="#7C9DA8"/>
</svg>
