<svg width="32" height="32" viewBox="0 0 32 32" fill="none" xmlns="http://www.w3.org/2000/svg">
<path d="M12.8711 18.4002L15.0178 20.0668C15.2978 20.3468 15.9244 20.4801 16.3378 20.4801H18.9778C19.8044 20.4801 20.7111 19.8535 20.9244 19.0268L22.5911 13.9734C22.9378 13.0001 22.3111 12.1734 21.2711 12.1734H18.4978C18.0844 12.1734 17.7378 11.8268 17.8044 11.3468L18.1511 9.1334C18.2844 8.50674 17.8711 7.81338 17.2444 7.61338C16.6844 7.40005 15.9911 7.68003 15.7244 8.09336L12.8844 12.3201" fill="none" stroke="#8CA8B2" stroke-width="2" stroke-miterlimit="10"/>
<path d="M9.33594 18.3997V11.613C9.33594 10.6396 9.74926 10.293 10.7226 10.293H11.4159C12.3893 10.293 12.8026 10.6396 12.8026 11.613V18.3997C12.8026 19.3731 12.3893 19.7197 11.4159 19.7197H10.7226C9.74926 19.7197 9.33594 19.3731 9.33594 18.3997Z" fill="none" stroke="#8CA8B2" stroke-width="2" stroke-linecap="round" stroke-linejoin="round"/>
<path d="M24 25.1463H22.9867C21.92 25.1463 20.9067 25.5596 20.16 26.3063L17.88 28.5597C16.84 29.5864 15.1467 29.5864 14.1067 28.5597L11.8267 26.3063C11.08 25.5596 10.0533 25.1463 9 25.1463H8C5.78667 25.1463 4 23.373 4 21.1864V6.63965C4 4.45298 5.78667 2.67969 8 2.67969H24C26.2133 2.67969 28 4.45298 28 6.63965V21.1864C28 23.3597 26.2133 25.1463 24 25.1463Z" fill="none" stroke="#8CA8B2" stroke-width="2" stroke-miterlimit="10" stroke-linecap="round" stroke-linejoin="round"/>
</svg>
