<svg width="14" height="13" viewBox="0 0 14 13" fill="none" xmlns="http://www.w3.org/2000/svg">
<path d="M3.15001 13H0.174997V4.30625H3.15001V13ZM1.6625 3.0875C0.700001 3.0875 0 2.4375 0 1.54375C0 0.65 0.787501 0 1.6625 0C2.625 0 3.325 0.65 3.325 1.54375C3.325 2.4375 2.625 3.0875 1.6625 3.0875ZM14 13H11.025V8.2875C11.025 6.90625 10.4125 6.5 9.53749 6.5C8.66249 6.5 7.78749 7.15 7.78749 8.36875V13H4.8125V4.30625H7.6125V5.525C7.875 4.95625 8.92499 4.0625 10.4125 4.0625C12.075 4.0625 13.825 4.95625 13.825 7.6375V13H14Z" fill="#181818"/>
<path d="M13.325 7.6375V12.5H11.525V8.2875C11.525 7.53534 11.3598 6.93663 10.9706 6.53003C10.5757 6.11755 10.0443 6 9.53749 6C8.40602 6 7.28749 6.85459 7.28749 8.36875V12.5H5.3125V4.80625H7.1125V5.525L8.06648 5.73453C8.14478 5.56487 8.39033 5.2663 8.81413 5.00694C9.22552 4.75516 9.77056 4.5625 10.4125 4.5625C11.1621 4.5625 11.8859 4.76466 12.4149 5.22257C12.9306 5.66894 13.325 6.41336 13.325 7.6375ZM0.674997 12.5V4.80625H2.65001V12.5H0.674997ZM1.6625 2.5875C0.940602 2.5875 0.5 2.12711 0.5 1.54375C0.5 0.976657 1.01026 0.5 1.6625 0.5C2.3844 0.5 2.825 0.960392 2.825 1.54375C2.825 2.12711 2.3844 2.5875 1.6625 2.5875Z" stroke="white" stroke-opacity="0.2"/>
</svg>
