<svg width="24" height="24" viewBox="0 0 24 24" fill="none" xmlns="http://www.w3.org/2000/svg">
<path d="M22.4783 10.4385L21.4765 14.6185C20.6177 18.2285 18.9207 19.6885 15.731 19.3885C15.2199 19.3485 14.6678 19.2585 14.0749 19.1185L12.3574 18.7185C8.09429 17.7285 6.77549 15.6685 7.77737 11.4885L8.77924 7.29854C8.98371 6.44854 9.22906 5.70854 9.53576 5.09854C10.7319 2.67854 12.7663 2.02854 16.1808 2.81854L17.8881 3.20854C22.1717 4.18854 23.4802 6.25854 22.4783 10.4385Z" fill="none" stroke="#7C9DA8" stroke-width="2" stroke-linecap="round" stroke-linejoin="round"/>
<path d="M15.7311 19.3896C15.0972 19.8096 14.2998 20.1596 13.3286 20.4696L11.7134 20.9896C7.65474 22.2696 5.51809 21.1996 4.19929 17.2296L2.89072 13.2796C1.58215 9.30961 2.66581 7.20961 6.72443 5.92961L8.33969 5.40961C8.75885 5.27961 9.15755 5.16961 9.53581 5.09961C9.22911 5.70961 8.98376 6.44961 8.77929 7.29961L7.77742 11.4896C6.77554 15.6696 8.09434 17.7296 12.3574 18.7196L14.0749 19.1196C14.6679 19.2596 15.2199 19.3496 15.7311 19.3896Z" fill="none" stroke="#7C9DA8" stroke-width="2" stroke-linecap="round" stroke-linejoin="round"/>
<path d="M13.2568 8.53125L18.2151 9.76125" fill="none" stroke="#7C9DA8" stroke-width="2" stroke-linecap="round" stroke-linejoin="round"/>
<path d="M12.2549 12.4004L15.2196 13.1404" fill="none" stroke="#7C9DA8" stroke-width="2" stroke-linecap="round" stroke-linejoin="round"/>
</svg>
