<svg width="24" height="24" viewBox="0 0 24 24" fill="none" xmlns="http://www.w3.org/2000/svg">
	<path d="M11.7105 9.42864C11.6236 9.41994 11.5194 9.41994 11.4238 9.42864C9.35625 9.35907 7.71436 7.66314 7.71436 5.57585C7.71436 3.44507 9.43443 1.71436 11.5715 1.71436C13.6999 1.71436 15.4286 3.44507 15.4286 5.57585C15.42 7.66314 13.7781 9.35907 11.7105 9.42864Z" fill="#BBCBD0"/>
	<path d="M6.22458 14.2213C3.63933 15.8317 3.63933 18.4561 6.22458 20.0565C9.16237 21.8856 13.9803 21.8856 16.9181 20.0565C19.5034 18.4461 19.5034 15.8218 16.9181 14.2213C13.991 12.4021 9.17306 12.4021 6.22458 14.2213Z" fill="#BBCBD0"/>
</svg>	