<svg width="24" height="24" viewBox="0 0 24 24" fill="none" xmlns="http://www.w3.org/2000/svg">
<path fill-rule="evenodd" clip-rule="evenodd" d="M3.0422 11.6754C3.0422 16.5458 6.5734 19.8642 10.5398 20.5506C10.6477 20.5693 10.7508 20.609 10.8434 20.6676C10.9359 20.7262 11.016 20.8024 11.0791 20.8919C11.1421 20.9814 11.1869 21.0825 11.211 21.1893C11.235 21.2962 11.2377 21.4067 11.219 21.5146C11.2003 21.6225 11.1605 21.7256 11.102 21.8181C11.0434 21.9107 10.9672 21.9907 10.8777 22.0538C10.7882 22.1169 10.6871 22.1617 10.5803 22.1857C10.4734 22.2097 10.3629 22.2125 10.255 22.1938C5.5974 21.3874 1.375 17.461 1.375 11.6754C1.375 9.21617 2.4934 7.28337 3.799 5.81457C4.735 4.76177 5.8054 3.90577 6.6662 3.25137H4.0486C3.83643 3.25137 3.63294 3.16708 3.48291 3.01705C3.33289 2.86702 3.2486 2.66354 3.2486 2.45137C3.2486 2.23919 3.33289 2.03571 3.48291 1.88568C3.63294 1.73565 3.83643 1.65137 4.0486 1.65137H8.8486C9.06077 1.65137 9.26426 1.73565 9.41429 1.88568C9.56431 2.03571 9.6486 2.23919 9.6486 2.45137V7.25137C9.6486 7.46354 9.56431 7.66702 9.41429 7.81705C9.26426 7.96708 9.06077 8.05137 8.8486 8.05137C8.63643 8.05137 8.43294 7.96708 8.28291 7.81705C8.13289 7.66702 8.0486 7.46354 8.0486 7.25137V4.29777L8.047 4.30097C7.1318 4.98897 6.015 5.83217 5.047 6.92177C3.903 8.20817 3.0422 9.76337 3.0422 11.6738V11.6754ZM20.815 12.325C20.815 7.50577 17.359 4.20817 13.4438 3.47217C13.3347 3.45365 13.2303 3.41359 13.1369 3.35432C13.0434 3.29505 12.9626 3.21776 12.8994 3.12696C12.8361 3.03616 12.7915 2.93366 12.7683 2.82545C12.745 2.71724 12.7435 2.60548 12.7639 2.49669C12.7843 2.3879 12.8262 2.28427 12.8871 2.19183C12.9479 2.09939 13.0266 2.02001 13.1185 1.9583C13.2104 1.89659 13.3136 1.8538 13.4222 1.83241C13.5308 1.81103 13.6426 1.81149 13.751 1.83377C18.3494 2.69777 22.4822 6.60177 22.4822 12.325C22.4822 14.7842 21.3638 16.7154 20.0582 18.1858C19.1222 19.2386 18.0518 20.0946 17.191 20.749H19.8086C20.0208 20.749 20.2243 20.8333 20.3743 20.9833C20.5243 21.1333 20.6086 21.3368 20.6086 21.549C20.6086 21.7611 20.5243 21.9646 20.3743 22.1147C20.2243 22.2647 20.0208 22.349 19.8086 22.349H15.0086C14.7964 22.349 14.5929 22.2647 14.4429 22.1147C14.2929 21.9646 14.2086 21.7611 14.2086 21.549V16.749C14.2086 16.5368 14.2929 16.3333 14.4429 16.1833C14.5929 16.0333 14.7964 15.949 15.0086 15.949C15.2208 15.949 15.4243 16.0333 15.5743 16.1833C15.7243 16.3333 15.8086 16.5368 15.8086 16.749V19.701H15.8118C16.7254 19.0098 17.8438 18.1682 18.8102 17.077C19.9542 15.7922 20.815 14.237 20.815 12.325Z" fill="#181818"/>
</svg>
