<svg width="22" height="22" viewBox="0 0 22 22" fill="none" xmlns="http://www.w3.org/2000/svg">
	<path d="M19.5 15.25V6.25C20.69 5.75 21.5 4.58 21.5 3.25C21.5 1.46 20.04 0 18.25 0C16.93 0 15.75 0.81 15.25 2H6.25C5.75 0.81 4.58 0 3.25 0C1.46 0 0 1.46 0 3.25C0 4.57 0.81 5.75 2 6.25V15.25C0.81 15.75 0 16.92 0 18.25C0 20.04 1.46 21.5 3.25 21.5C4.57 21.5 5.75 20.69 6.25 19.5H15.25C15.75 20.69 16.92 21.5 18.25 21.5C20.04 21.5 21.5 20.04 21.5 18.25C21.5 16.93 20.69 15.75 19.5 15.25ZM17.91 15.02C17.8 15.03 17.7 15.05 17.59 15.07C17.32 15.12 17.06 15.21 16.81 15.34C16.75 15.37 16.69 15.4 16.63 15.44C16.13 15.72 15.72 16.13 15.44 16.63C15.4 16.69 15.37 16.75 15.34 16.81C15.21 17.06 15.12 17.32 15.07 17.59C15.05 17.7 15.03 17.8 15.02 17.91C15.01 17.94 15.01 17.97 15.01 18H6.49C6.47 17.75 6.42 17.51 6.35 17.28C6.33 17.2 6.3 17.11 6.26 17.03C6.23 16.96 6.2 16.89 6.16 16.81C6.13 16.75 6.1 16.69 6.06 16.63C5.78 16.13 5.37 15.72 4.87 15.44C4.81 15.4 4.75 15.37 4.69 15.34C4.61 15.3 4.54 15.27 4.47 15.24C4.39 15.2 4.3 15.17 4.22 15.15C3.99 15.08 3.75 15.03 3.5 15.01V6.49C3.76 6.47 4 6.42 4.24 6.34C4.33 6.32 4.43 6.28 4.52 6.24C4.57 6.22 4.63 6.19 4.69 6.16C4.75 6.13 4.81 6.1 4.87 6.06C5.37 5.78 5.78 5.37 6.06 4.87C6.1 4.81 6.13 4.75 6.16 4.69C6.19 4.63 6.22 4.57 6.24 4.52C6.28 4.43 6.32 4.33 6.34 4.24C6.42 4 6.47 3.76 6.49 3.5H15.01C15.03 3.77 15.08 4.02 15.17 4.27C15.19 4.35 15.22 4.44 15.26 4.52C15.28 4.58 15.31 4.63 15.34 4.69C15.37 4.75 15.4 4.81 15.44 4.87C15.72 5.37 16.13 5.78 16.63 6.06C16.69 6.1 16.75 6.13 16.81 6.16C16.87 6.19 16.92 6.22 16.98 6.24C17.06 6.28 17.15 6.31 17.23 6.33C17.48 6.42 17.73 6.47 18 6.49V15.01C17.97 15.01 17.94 15.01 17.91 15.02Z" fill="#BBCBD0"/>
</svg>