<svg width="24" height="24" viewBox="0 0 24 24" fill="none" xmlns="http://www.w3.org/2000/svg">
	<path d="M14.2202 15.0001L14.2202 20.0801C14.2202 20.6901 14.5302 21.2501 15.0502 21.5701C15.5602 21.8901 16.1702 21.9201 16.7102 21.6601C19.2302 20.4301 21.2102 18.2101 22.1402 15.5701C22.2002 15.3901 22.2402 15.1901 22.2402 15.0001C22.2402 14.6501 22.1302 14.3001 21.9202 14.0001C21.5902 13.5301 21.0502 13.2501 20.4802 13.2501L15.9802 13.2401C15.5102 13.2401 15.0702 13.4201 14.7402 13.7501C14.4102 14.0901 14.2202 14.5301 14.2202 15.0001Z" fill="#BBCBD0"/>
	<path d="M9.6 1.52007C4.68 2.64007 1.25 6.95007 1.25 12.0001C1.25 17.0501 4.68 21.3601 9.6 22.4801C10.12 22.6001 10.65 22.4801 11.07 22.1401C11.49 21.8001 11.73 21.3001 11.73 20.7601L11.73 3.23007C11.73 2.69007 11.49 2.19007 11.07 1.85007C10.65 1.52007 10.11 1.40007 9.6 1.52007Z" fill="#BBCBD0"/>
	<path d="M14.2698 3.94L14.2598 9C14.2598 9.47 14.4398 9.91 14.7698 10.24C15.0998 10.57 15.5398 10.75 16.0098 10.75L20.4898 10.74C21.0598 10.74 21.5998 10.46 21.9298 9.99C22.1398 9.69 22.2498 9.34 22.2498 8.99C22.2498 8.8 22.2198 8.61 22.1498 8.43C21.2298 5.81 19.2598 3.59 16.7698 2.36C16.2398 2.1 15.6198 2.13 15.1198 2.44C14.5798 2.77 14.2698 3.33 14.2698 3.94Z" fill="#BBCBD0"/>
</svg>