<svg width="15" height="13" viewBox="0 0 15 13" fill="none" xmlns="http://www.w3.org/2000/svg">
<path d="M1.03117 5.59647C5.0577 3.76188 7.74267 2.55241 9.08611 1.96805C12.9219 0.299594 13.7189 0.00976514 14.2384 9.27819e-05C14.3527 -0.00191006 14.6082 0.0277027 14.7737 0.16813C14.9134 0.286703 14.9518 0.44688 14.9702 0.5593C14.9886 0.671721 15.0115 0.927819 14.9933 1.12793C14.7855 3.41192 13.8861 8.95457 13.4285 11.5127C13.2349 12.5951 12.8536 12.958 12.4845 12.9936C11.6824 13.0707 11.0734 12.4392 10.2965 11.9067C9.08085 11.0733 8.39409 10.5545 7.21409 9.74136C5.8504 8.80157 6.73442 8.28505 7.51159 7.44091C7.71497 7.21999 11.249 3.85836 11.3174 3.55341C11.326 3.51527 11.3339 3.37311 11.2532 3.29804C11.1724 3.22297 11.0532 3.24864 10.9672 3.26906C10.8453 3.29799 8.90325 4.64035 5.14115 7.29611C4.58991 7.69195 4.09062 7.88482 3.64327 7.87472C3.15011 7.86357 2.20146 7.58311 1.49623 7.34338C0.631245 7.04933 -0.0562297 6.89387 0.00363389 6.3945C0.0348145 6.13439 0.377327 5.86838 1.03117 5.59647Z" fill="#181818"/>
<path d="M1.23088 6.05493L1.22317 6.05814C0.914893 6.18634 0.71172 6.30073 0.590594 6.3948C0.565781 6.41407 0.546824 6.43057 0.53245 6.4442C0.554495 6.45914 0.585676 6.47792 0.629059 6.4999C0.799669 6.58632 1.02214 6.65958 1.31777 6.75692C1.42157 6.7911 1.5344 6.82825 1.65716 6.86998C2.00271 6.98745 2.40422 7.1136 2.77611 7.21112C3.16015 7.31183 3.47142 7.37071 3.65457 7.37484C3.95025 7.38152 4.34329 7.25349 4.8495 6.88998L4.85279 6.88762L4.85279 6.88763C6.73419 5.55951 8.16184 4.55884 9.13494 3.88622C9.62115 3.55014 9.9959 3.29456 10.2578 3.12056C10.3882 3.03389 10.494 2.96525 10.5729 2.91639C10.6119 2.89225 10.6488 2.87013 10.6812 2.85226C10.6971 2.84343 10.7166 2.83308 10.7373 2.82329L10.7378 2.82307C10.7511 2.8168 10.7954 2.79594 10.8517 2.78257L10.8563 2.78149C10.8991 2.77129 11.0017 2.74682 11.1162 2.74776C11.2442 2.7488 11.432 2.78166 11.5936 2.93181C11.7534 3.08036 11.7992 3.26585 11.8139 3.36943C11.8288 3.4752 11.8236 3.58128 11.8053 3.66284L1.23088 6.05493ZM1.23088 6.05493L1.23848 6.05147M1.23088 6.05493L1.23848 6.05147M1.23848 6.05147C5.26568 4.21657 7.94673 3.0089 9.28555 2.42655M1.23848 6.05147L9.28555 2.42655M9.28555 2.42655C11.2053 1.59151 12.3526 1.10679 13.0833 0.829497M9.28555 2.42655L13.0833 0.829497M13.0833 0.829497C13.8232 0.5487 14.0818 0.503096 14.2477 0.500006M13.0833 0.829497L14.2477 0.500006M14.2477 0.500006L14.2384 9.27819e-05M14.2477 0.500006L14.2384 9.27819e-05M14.2384 9.27819e-05L14.2472 0.500016C14.2633 0.499733 14.3119 0.502351 14.3656 0.515775M14.2384 9.27819e-05C13.7189 0.00976514 12.9219 0.299594 9.08611 1.96805L14.3656 0.515775M14.2384 9.27819e-05C14.3527 -0.00191006 14.6082 0.0277027 14.7737 0.16813C14.9134 0.286703 14.9518 0.44688 14.9702 0.5593L14.2384 9.27819e-05ZM14.3656 0.515775C14.3908 0.522085 14.4118 0.529455 14.4277 0.536775M14.3656 0.515775L14.4277 0.536775M14.4277 0.536775C14.4355 0.540322 14.4411 0.543443 14.4449 0.545821M14.4277 0.536775L14.4449 0.545821M14.4449 0.545821C14.4488 0.548191 14.4503 0.549502 14.4502 0.549368M14.4449 0.545821L14.4502 0.549368M14.4502 0.549368C14.4509 0.550022 14.4513 0.550388 14.4519 0.551249M14.4502 0.549368L14.4519 0.551249M14.4519 0.551249C14.4527 0.552388 14.4547 0.555575 14.4575 0.562088M14.4519 0.551249L14.4575 0.562088M14.4575 0.562088C14.4639 0.577041 14.4702 0.59973 14.4768 0.640054M14.4575 0.562088L14.4768 0.640054M14.4768 0.640054C14.4825 0.675184 14.4913 0.749206 14.4963 0.838579M14.4768 0.640054L14.4963 0.838579M14.4963 0.838579C14.5013 0.928465 14.5015 1.01594 14.4954 1.08261M14.4963 0.838579L14.4954 1.08261M14.4954 1.08261C14.2897 3.34221 13.3942 8.86486 12.9363 11.4246M14.4954 1.08261L12.9363 11.4246M12.9363 11.4246C12.7491 12.471 12.4394 12.4956 12.4367 12.4959M12.9363 11.4246L12.4367 12.4959M12.4367 12.4959L12.4367 12.4959M12.4367 12.4959L12.4367 12.4959M12.4367 12.4959C12.1901 12.5196 11.9492 12.441 11.6428 12.2527M12.4367 12.4959L11.6428 12.2527M11.6428 12.2527C11.4885 12.158 11.33 12.0432 11.1515 11.9106M11.6428 12.2527L11.1515 11.9106M11.1515 11.9106C11.1229 11.8894 11.0937 11.8677 11.0641 11.8455M11.1515 11.9106L11.0641 11.8455M11.0641 11.8455C10.9136 11.7334 10.7499 11.6112 10.5792 11.4943M11.0641 11.8455L10.5792 11.4943M10.5792 11.4943C9.97529 11.0803 9.50273 10.7444 9.03196 10.4092M10.5792 11.4943L9.03196 10.4092M9.03196 10.4092L8.96914 10.3644M9.03196 10.4092L8.96914 10.3644M8.96914 10.3644C8.51912 10.0439 8.06505 9.72056 7.49781 9.32965M8.96914 10.3644L7.49781 9.32965M7.49781 9.32965C7.18435 9.11363 7.06465 8.96358 7.02332 8.88079M7.49781 9.32965L7.02332 8.88079M7.02332 8.88079C6.99821 8.83051 6.99761 8.80466 7.0211 8.74866M7.02332 8.88079L7.0211 8.74866M7.0211 8.74866C7.05772 8.66135 7.14359 8.54362 7.30983 8.36672M7.0211 8.74866L7.30983 8.36672M7.30983 8.36672C7.38051 8.29151 7.45697 8.21443 7.54192 8.12877M7.30983 8.36672L7.54192 8.12877M7.54192 8.12877C7.55276 8.11784 7.56374 8.10677 7.57487 8.09554M7.54192 8.12877L7.57487 8.09554M7.57487 8.09554C7.67099 7.99856 7.77548 7.89248 7.8794 7.7796M7.57487 8.09554L7.8794 7.7796M7.8794 7.7796C7.8794 7.7796 7.87941 7.7796 7.87941 7.77959C7.87956 7.77943 7.88085 7.77805 7.88368 7.77511M7.8794 7.7796L7.88368 7.77511M7.88368 7.77511L7.89645 7.76203M7.88368 7.77511L7.89645 7.76203M7.89645 7.76203C7.90735 7.75096 7.92164 7.73664 7.93949 7.71891M7.89645 7.76203L7.93949 7.71891M7.93949 7.71891C7.97515 7.68348 8.02246 7.63698 8.08028 7.58044M7.93949 7.71891L8.08028 7.58044M8.08028 7.58044C8.18446 7.47857 8.32011 7.34668 8.47826 7.19292M8.08028 7.58044L8.47826 7.19292M8.47826 7.19292L8.53099 7.14166M8.47826 7.19292L8.53099 7.14166M8.53099 7.14166C8.89195 6.7907 9.35618 6.33902 9.81648 5.88442M8.53099 7.14166L9.81648 5.88442M9.81648 5.88442C10.2761 5.43053 10.735 4.97043 11.0847 4.60316M9.81648 5.88442L11.0847 4.60316M11.0847 4.60316C11.2588 4.42022 11.4107 4.25525 11.5232 4.12326M11.0847 4.60316L11.5232 4.12326M11.5232 4.12326C11.5788 4.05792 11.6306 3.994 11.6721 3.93617M11.5232 4.12326L11.6721 3.93617M11.6721 3.93617C11.6927 3.90743 11.7154 3.87377 11.7358 3.83776M11.6721 3.93617L11.7358 3.83776M11.7358 3.83776C11.7518 3.80966 11.7867 3.74563 11.8053 3.66285L11.7358 3.83776Z" stroke="white" stroke-opacity="0.2"/>
</svg>
