<svg width="25" height="24" viewBox="0 0 25 24" fill="none" xmlns="http://www.w3.org/2000/svg">
<g clip-path="url(#clip0_1383_16216)">
<path d="M24.9502 0H0V24H24.9502V0Z" fill="white" fill-opacity="0.01"/>
<path d="M21.3106 2H3.63751C2.77629 2 2.07812 2.67158 2.07812 3.5V20.5C2.07812 21.3285 2.77629 22 3.63751 22H21.3106C22.1718 22 22.87 21.3285 22.87 20.5V3.5C22.87 2.67158 22.1718 2 21.3106 2Z" fill="none" stroke="#7C9DA8" stroke-width="2" stroke-linejoin="round"/>
<path d="M6.23828 9.52637C7.96655 7.52637 10.0457 6.52637 12.4758 6.52637C14.9059 6.52637 16.9851 7.52637 18.7134 9.52637" fill="none" stroke="#7C9DA8" stroke-width="2" stroke-linecap="round"/>
<path d="M12.4735 15.5C13.3347 15.5 14.0328 14.8284 14.0328 14C14.0328 13.1715 13.3347 12.5 12.4735 12.5C11.6122 12.5 10.9141 13.1715 10.9141 14C10.9141 14.8284 11.6122 15.5 12.4735 15.5Z" fill="#7C9DA8"/>
<path d="M9.875 10.5L12.4783 14" fill="none" stroke="#7C9DA8" stroke-width="2" stroke-linecap="round"/>
</g>
<defs>
<clipPath id="clip0_1383_16216">
<rect width="24.9502" height="24" fill="white"/>
</clipPath>
</defs>
</svg>
