<svg width="15" height="15" viewBox="0 0 15 15" fill="none" xmlns="http://www.w3.org/2000/svg">
<path fill-rule="evenodd" clip-rule="evenodd" d="M12.75 2.15625C11.3438 0.75 9.46875 0 7.5 0C3.375 0 0 3.375 0 7.5C0 8.8125 0.375006 10.125 1.03126 11.25L0 15L3.93751 13.9687C5.06251 14.5312 6.28125 14.9062 7.5 14.9062C11.625 14.9062 15 11.5312 15 7.40625C15 5.4375 14.1563 3.5625 12.75 2.15625ZM7.5 13.6875C6.375 13.6875 5.25001 13.4063 4.31251 12.8438L4.12499 12.75L1.78124 13.4062L2.43751 11.1562L2.24999 10.875C1.59374 9.84375 1.31249 8.71875 1.31249 7.59375C1.31249 4.21875 4.125 1.40625 7.5 1.40625C9.1875 1.40625 10.6875 2.0625 11.9063 3.1875C13.125 4.40625 13.6875 5.90625 13.6875 7.59375C13.6875 10.875 10.9687 13.6875 7.5 13.6875ZM10.875 9C10.6875 8.90625 9.75001 8.4375 9.56251 8.4375C9.37501 8.34375 9.28124 8.34375 9.18749 8.53125C9.09374 8.71875 8.71876 9.09375 8.62501 9.28125C8.53126 9.375 8.43749 9.375 8.24999 9.375C8.06249 9.28125 7.50001 9.09375 6.75001 8.4375C6.18751 7.96875 5.81251 7.3125 5.71876 7.125C5.62501 6.9375 5.71876 6.84375 5.81251 6.75C5.90626 6.65625 6 6.5625 6.09375 6.46875C6.1875 6.375 6.18751 6.28125 6.28126 6.1875C6.37501 6.09375 6.28126 6 6.28126 5.90625C6.28126 5.8125 5.90626 4.875 5.71876 4.5C5.62501 4.21875 5.43751 4.21875 5.34376 4.21875C5.25001 4.21875 5.15624 4.21875 4.96874 4.21875C4.87499 4.21875 4.68749 4.21875 4.49999 4.40625C4.31249 4.59375 3.84376 5.0625 3.84376 6C3.84376 6.9375 4.49999 7.78125 4.59374 7.96875C4.68749 8.0625 5.90624 10.0312 7.78124 10.7812C9.37499 11.4375 9.65626 11.25 10.0313 11.25C10.4063 11.25 11.1562 10.7812 11.25 10.4062C11.4375 9.9375 11.4375 9.5625 11.3438 9.5625C11.25 9.09375 11.0625 9.09375 10.875 9Z" fill="#181818"/>
<path d="M1.51336 11.3826L1.56913 11.1798L1.46315 10.9981C0.849066 9.94536 0.5 8.71926 0.5 7.5C0.5 3.65114 3.65114 0.5 7.5 0.5C9.34007 0.5 11.0867 1.20006 12.3965 2.5098C13.7178 3.83111 14.5 5.58209 14.5 7.40625C14.5 11.2551 11.3489 14.4062 7.5 14.4062C6.3817 14.4062 5.24049 14.0612 4.16112 13.5215L3.99284 13.4374L3.81083 13.4851L0.71198 14.2967L1.51336 11.3826ZM1.30124 13.2662L1.04918 14.1305L1.91606 13.8877L4.07379 13.2836C5.09379 13.8904 6.30232 14.1875 7.5 14.1875C11.2449 14.1875 14.1875 11.1511 14.1875 7.59375C14.1875 5.78461 13.5798 4.15395 12.2598 2.83395L12.2527 2.82688L12.2454 2.8201C10.9444 1.61913 9.32625 0.90625 7.5 0.90625C3.84886 0.90625 0.812494 3.94261 0.812494 7.59375C0.812494 8.80424 1.11594 10.0242 1.82816 11.1434L1.82807 11.1435L1.83398 11.1524L1.89229 11.2398L1.30124 13.2662ZM9.46888 9.00689C9.48514 8.98585 9.50284 8.9625 9.52093 8.9375H9.52394C9.54959 8.94512 9.58801 8.95841 9.63966 8.97843C9.74314 9.01853 9.87332 9.07528 10.0104 9.13813C10.2832 9.26315 10.5578 9.40039 10.6514 9.44721C10.689 9.46601 10.7238 9.48109 10.7495 9.49199C10.7585 9.49584 10.766 9.49901 10.7725 9.50176C10.7875 9.50807 10.7972 9.51218 10.8084 9.51721C10.81 9.51793 10.8114 9.51861 10.8128 9.51924C10.822 9.53917 10.8377 9.58153 10.8535 9.66056L10.8927 9.85654C10.8765 9.95006 10.8436 10.0759 10.7858 10.2206L10.7732 10.2521L10.7669 10.277C10.7655 10.2788 10.7523 10.3063 10.7056 10.3569C10.6487 10.4184 10.5668 10.4874 10.4687 10.5527C10.3714 10.6176 10.2701 10.671 10.181 10.7067C10.1368 10.7243 10.0998 10.736 10.071 10.7429C10.0436 10.7494 10.0309 10.75 10.0309 10.75C10.0309 10.75 10.031 10.75 10.0313 10.75C9.94419 10.75 9.84269 10.7589 9.77067 10.7653C9.74686 10.7674 9.72627 10.7692 9.71049 10.7703C9.62848 10.7761 9.53958 10.7782 9.4185 10.7648C9.16799 10.7369 8.74817 10.6387 7.97161 10.3189L7.97162 10.3189L7.96693 10.317C7.12779 9.98135 6.41415 9.36187 5.8872 8.79007C5.62655 8.50723 5.41781 8.24293 5.26801 8.04273C5.1931 7.94263 5.13315 7.85885 5.08743 7.79492L5.08462 7.79098C5.06354 7.76151 5.04343 7.73338 5.02712 7.71122C5.02664 7.71056 5.02605 7.70975 5.02535 7.7088C5.02203 7.70426 5.01634 7.69648 5.00893 7.6868C4.9795 7.63629 4.94131 7.57601 4.90646 7.52102C4.8904 7.49566 4.87504 7.47143 4.86159 7.4498C4.79096 7.33624 4.70902 7.19844 4.63081 7.04202C4.47109 6.72258 4.34376 6.35807 4.34376 6C4.34376 5.26935 4.69149 4.92178 4.84886 4.76448L4.85354 4.7598C4.87052 4.74282 4.88309 4.73438 4.89022 4.73025C4.89735 4.7261 4.90272 4.72414 4.90688 4.72295C4.91668 4.72015 4.92646 4.71875 4.96874 4.71875H4.96984H4.97093H4.97202H4.97312H4.97421H4.97529H4.97638H4.97746H4.97854H4.97962H4.98069H4.98177H4.98284H4.98391H4.98498H4.98604H4.98711H4.98817H4.98923H4.99029H4.99134H4.9924H4.99345H4.9945H4.99554H4.99659H4.99763H4.99867H4.99971H5.00075H5.00179H5.00282H5.00385H5.00488H5.00591H5.00693H5.00795H5.00898H5.00999H5.01101H5.01203H5.01304H5.01405H5.01506H5.01607H5.01707H5.01808H5.01908H5.02008H5.02108H5.02207H5.02307H5.02406H5.02505H5.02603H5.02702H5.028H5.02899H5.02997H5.03095H5.03192H5.0329H5.03387H5.03484H5.03581H5.03678H5.03774H5.03871H5.03967H5.04063H5.04158H5.04254H5.04349H5.04445H5.0454H5.04635H5.04729H5.04824H5.04918H5.05012H5.05106H5.052H5.05293H5.05387H5.0548H5.05573H5.05666H5.05759H5.05851H5.05944H5.06036H5.06128H5.0622H5.06311H5.06403H5.06494H5.06585H5.06676H5.06767H5.06857H5.06948H5.07038H5.07128H5.07218H5.07308H5.07397H5.07487H5.07576H5.07665H5.07754H5.07843H5.07931H5.08019H5.08108H5.08196H5.08284H5.08371H5.08459H5.08546H5.08634H5.08721H5.08807H5.08894H5.08981H5.09067H5.09153H5.09239H5.09325H5.09411H5.09497H5.09582H5.09667H5.09753H5.09837H5.09922H5.10007H5.10091H5.10176H5.1026H5.10344H5.10428H5.10511H5.10595H5.10678H5.10762H5.10845H5.10928H5.1101H5.11093H5.11176H5.11258H5.1134H5.11422H5.11504H5.11586H5.11667H5.11749H5.1183H5.11911H5.11992H5.12073H5.12154H5.12234H5.12314H5.12395H5.12475H5.12555H5.12635H5.12714H5.12794H5.12873H5.12952H5.13031H5.1311H5.13189H5.13268H5.13346H5.13425H5.13503H5.13581H5.13659H5.13737H5.13815H5.13892H5.1397H5.14047H5.14124H5.14201H5.14278H5.14355H5.14431H5.14508H5.14584H5.1466H5.14736H5.14812H5.14888H5.14964H5.15039H5.15115H5.1519H5.15265H5.1534H5.15415H5.1549H5.15564H5.15639H5.15713H5.15787H5.15861H5.15935H5.16009H5.16083H5.16157H5.1623H5.16303H5.16377H5.1645H5.16523H5.16596H5.16668H5.16741H5.16814H5.16886H5.16958H5.1703H5.17102H5.17174H5.17246H5.17318H5.17389H5.17461H5.17532H5.17603H5.17674H5.17745H5.17816H5.17887H5.17957H5.18028H5.18098H5.18168H5.18239H5.18309H5.18379H5.18448H5.18518H5.18588H5.18657H5.18727H5.18796H5.18865H5.18934H5.19003H5.19072H5.19141H5.19209H5.19278H5.19346H5.19414H5.19483H5.19551H5.19619H5.19687H5.19754H5.19822H5.1989H5.19957H5.20024H5.20092H5.20159H5.20226H5.20293H5.2036H5.20426H5.20493H5.2056H5.20626H5.20693H5.20759H5.20825H5.20891H5.20957H5.21023H5.21089H5.21154H5.2122H5.21285H5.21351H5.21416H5.21481H5.21547H5.21612H5.21676H5.21741H5.21806H5.21871H5.21935H5.22H5.22064H5.22129H5.22193H5.22257H5.22321H5.22385H5.22449H5.22513H5.22576H5.2264H5.22703H5.22767H5.2283H5.22894H5.22957H5.2302H5.23083H5.23146H5.23209H5.23271H5.23334H5.23397H5.23459H5.23522H5.23584H5.23646H5.23709H5.23771H5.23833H5.23895H5.23957H5.24019H5.2408H5.24142H5.24204H5.24265H5.24327H5.24388H5.24449H5.24511H5.24572H5.24633H5.24694H5.24755H5.24816H5.24877H5.24937H5.24998H5.25059H5.25119H5.2518H5.2524H5.253H5.25361H5.25421H5.25481H5.25541H5.25601H5.25661H5.25721H5.25781H5.2584H5.259H5.2596H5.26019H5.26079H5.26138H5.26198H5.26257H5.26316H5.26375H5.26435H5.26494H5.26553H5.26612H5.26671H5.26729H5.26788H5.26847H5.26905H5.26911L5.27154 4.72361C5.35573 4.89198 5.49017 5.2045 5.60608 5.49429C5.66334 5.63743 5.71354 5.76871 5.74872 5.86747C5.76572 5.9152 5.77766 5.95101 5.78494 5.9749C5.78631 5.9878 5.78799 6.00018 5.78987 6.01196C5.76872 6.04739 5.7538 6.07739 5.74361 6.09786C5.74245 6.1002 5.74135 6.10241 5.7403 6.1045C5.73524 6.11462 5.7316 6.12162 5.72918 6.12621L5.59957 6.25583L5.45896 6.39645C5.45681 6.39859 5.45418 6.40117 5.45113 6.40417C5.41053 6.44398 5.29471 6.55758 5.23109 6.71664C5.14466 6.93268 5.17383 7.15318 5.27154 7.34861C5.37898 7.56349 5.78953 8.28607 6.4252 8.81767C7.12089 9.42534 7.69207 9.67484 7.93454 9.78076C7.97429 9.79812 8.0052 9.81162 8.02638 9.82221L8.13195 9.875H8.24999C8.26015 9.875 8.27113 9.87511 8.28286 9.87523C8.44072 9.8768 8.73364 9.87973 8.97856 9.6348L9.03594 9.57743L9.07169 9.50593C9.07172 9.50594 9.07552 9.49903 9.08582 9.48388C9.09762 9.46651 9.11378 9.44439 9.13491 9.41704C9.17799 9.36129 9.23029 9.29844 9.29037 9.22633L9.29356 9.2225C9.34988 9.15492 9.41341 9.07868 9.46888 9.00689ZM10.8046 9.50434C10.8046 9.50422 10.8055 9.50536 10.8071 9.50811C10.8053 9.50584 10.8045 9.50446 10.8046 9.50434Z" stroke="white" stroke-opacity="0.2"/>
</svg>
